<svg width="391" height="116" viewBox="0 0 391 116" fill="none" xmlns="http://www.w3.org/2000/svg">
<path d="M73 4.80001C73 4.80001 55.5816 3.24601 44.6 4.80001C41.93 5.17801 37.8 6.00001 37.8 6.00001C37.8 6.00001 33.568 7.24441 31 8.40001C27.8728 9.80761 26.1888 10.804 23.4 12.8C21.684 14.0284 20.7132 14.7292 19.2 16.2C18.9624 16.4308 18.8328 16.5644 18.6 16.8C16.266 19.1624 14.932 20.4988 13 23.2C12.08 24.4864 11.624 25.25 10.8 26.6L10.776 26.6392C10.5536 27.0036 10.4216 27.22 10.2 27.6C7.73042 31.8352 5.40002 39.2 5.40002 39.2C5.40002 39.2 4.05802 45.008 3.80002 48.8C3.62002 51.4496 3.62482 52.9504 3.80002 55.6C4.09322 60.0332 4.49522 62.5528 5.80002 66.8C7.05282 70.8784 8.01042 73.138 10.2 76.8C11.0672 78.2504 11.5996 79.0384 12.6 80.4C15.4128 84.2288 17.2908 86.2316 21 89.2C22.9284 90.7432 24.0804 91.5324 26.2 92.8C26.2 92.8 30.0088 94.954 32.6 96C36.5004 97.5744 38.8392 98.1844 43 98.8C48.254 99.5772 51.3476 99.5868 56.6 98.8C58.812 98.4688 60.0424 98.1884 62.2 97.6C64.4 97 65 96.8 68.2 94.8L51.8 78.4C51.8 78.4 48.3728 78.6492 46.2 78.4C44.6172 78.2184 43.7308 78.0412 42.2 77.6C39.9136 76.9412 38.674 76.3656 36.6 75.2C35.1272 74.372 34.3112 73.866 33 72.8C30.594 70.844 29.4452 69.428 27.8 66.8C26.0912 64.0704 25.4172 62.3148 24.6 59.2C24.1568 57.5108 23.964 56.5388 23.8 54.8C23.5212 51.8412 23.6868 50.1276 24.2 47.2C24.678 44.4736 25.0668 42.9256 26.2 40.4C27.0884 38.42 27.718 37.3508 29 35.6C30.2416 33.9044 31.0276 32.9944 32.6 31.6C35.0656 29.4136 36.7504 28.4484 39.8 27.2C41.9048 26.3384 43.16 25.994 45.4 25.6C47.7128 25.1932 49.0532 25.114 51.4 25.2C55.2268 25.3404 58.0284 25.7844 61.4 27.6C64 29 71 34.982 73 36.8C89.22 51.5456 111 72.8 111 72.8L140.2 44.8H141V99.2H162.6V4.80001H148.6L130 22.6L111.4 40.4H110.6L91.8 22.6L73 4.80001Z" fill="#16120F"/>
<path d="M92.6 64L75 46.8L75.1076 49.3848C75.3012 54.026 74.6844 58.6656 73.2856 63.0952L73 64L63.4 54.4L56.4 61.2L49.2 68.2L93.8 112.8L107.8 99.2L87 78.4L87.9624 76.6892C89.7128 73.5772 91.0388 70.2444 91.9048 66.7804L92.6 64Z" fill="#E3C13C"/>
<path d="M233.98 56.9L221.38 44.36L226.42 39.32L238.96 51.86L233.98 56.9ZM218.74 56.9C214.42 56.9 210.69 55.96 207.55 54.08C204.43 52.2 202.02 49.57 200.32 46.19C198.64 42.81 197.8 38.88 197.8 34.4C197.8 29.92 198.64 25.99 200.32 22.61C202.02 19.23 204.43 16.6 207.55 14.72C210.69 12.84 214.42 11.9 218.74 11.9C223.06 11.9 226.78 12.84 229.9 14.72C233.04 16.6 235.45 19.23 237.13 22.61C238.83 25.99 239.68 29.92 239.68 34.4C239.68 38.88 238.83 42.81 237.13 46.19C235.45 49.57 233.04 52.2 229.9 54.08C226.78 55.96 223.06 56.9 218.74 56.9ZM218.74 49.22C221.48 49.26 223.76 48.67 225.58 47.45C227.4 46.23 228.76 44.5 229.66 42.26C230.58 40.02 231.04 37.4 231.04 34.4C231.04 31.4 230.58 28.8 229.66 26.6C228.76 24.4 227.4 22.69 225.58 21.47C223.76 20.25 221.48 19.62 218.74 19.58C216 19.54 213.72 20.13 211.9 21.35C210.08 22.57 208.71 24.3 207.79 26.54C206.89 28.78 206.44 31.4 206.44 34.4C206.44 37.4 206.89 40 207.79 42.2C208.71 44.4 210.08 46.11 211.9 47.33C213.72 48.55 216 49.18 218.74 49.22ZM260.549 56.9C257.069 56.9 254.009 56.2 251.369 54.8C248.729 53.38 246.669 51.39 245.189 48.83C243.709 46.27 242.969 43.26 242.969 39.8V12.86L251.249 12.8V39.74C251.249 41.16 251.489 42.45 251.969 43.61C252.449 44.77 253.109 45.77 253.949 46.61C254.809 47.45 255.799 48.1 256.919 48.56C258.059 49 259.269 49.22 260.549 49.22C261.869 49.22 263.089 48.99 264.209 48.53C265.349 48.07 266.339 47.42 267.179 46.58C268.019 45.74 268.669 44.74 269.129 43.58C269.609 42.42 269.849 41.14 269.849 39.74V12.8H278.129V39.8C278.129 43.26 277.389 46.27 275.909 48.83C274.429 51.39 272.369 53.38 269.729 54.8C267.089 56.2 264.029 56.9 260.549 56.9ZM302.344 56.9C298.024 56.9 294.294 55.96 291.154 54.08C288.034 52.2 285.624 49.57 283.924 46.19C282.244 42.81 281.404 38.88 281.404 34.4C281.404 29.92 282.244 25.99 283.924 22.61C285.624 19.23 288.034 16.6 291.154 14.72C294.294 12.84 298.024 11.9 302.344 11.9C306.664 11.9 310.384 12.84 313.504 14.72C316.644 16.6 319.054 19.23 320.734 22.61C322.434 25.99 323.284 29.92 323.284 34.4C323.284 38.88 322.434 42.81 320.734 46.19C319.054 49.57 316.644 52.2 313.504 54.08C310.384 55.96 306.664 56.9 302.344 56.9ZM302.344 49.22C305.084 49.26 307.364 48.67 309.184 47.45C311.004 46.23 312.364 44.5 313.264 42.26C314.184 40.02 314.644 37.4 314.644 34.4C314.644 31.4 314.184 28.8 313.264 26.6C312.364 24.4 311.004 22.69 309.184 21.47C307.364 20.25 305.084 19.62 302.344 19.58C299.604 19.54 297.324 20.13 295.504 21.35C293.684 22.57 292.314 24.3 291.394 26.54C290.494 28.78 290.044 31.4 290.044 34.4C290.044 37.4 290.494 40 291.394 42.2C292.314 44.4 293.684 46.11 295.504 47.33C297.324 48.55 299.604 49.18 302.344 49.22ZM335.421 56V20.42H321.801V12.8H357.201V20.42H343.581V56H335.421ZM359.322 56V12.8H387.522V20.42H367.482V29.66H383.922V37.28H367.482V48.38H387.522V56H359.322ZM200.2 106V62.8H207.52L221.8 91.48L236.08 62.8H243.4V106H235.78V80.2L223.24 106H220.36L207.82 80.2V106H200.2ZM246.121 106L259.321 62.8H271.501L284.701 106H276.301L264.541 67.9H266.101L254.521 106H246.121ZM254.041 97V89.38H276.841V97H254.041ZM283.778 106L298.298 84.16L284.198 62.8H294.218L303.398 77.2L312.458 62.8H322.538L308.438 84.16L322.898 106H312.878L303.398 91.12L293.858 106H283.778Z" fill="#241E1B"/>
</svg>
